<svg width="338" height="158" viewBox="0 0 338 158" fill="none" xmlns="http://www.w3.org/2000/svg">
<path d="M146.325 0C146.63 2.85409 146.788 5.75317 146.788 8.68945C146.788 52.7562 111.55 88.4795 68.082 88.4795C39.0155 88.4793 13.6309 72.5046 0 48.7441V22C1.58505e-05 9.84975 9.84975 0 22 0H146.325Z" fill="#2C322E"/>
<path d="M271.849 50.5605C299.593 50.5605 323.984 65.1144 338 87.1016V136C338 148.15 328.15 158 316 158H197.998C194.859 149.385 193.144 140.071 193.144 130.351C193.144 86.284 228.381 50.5607 271.849 50.5605Z" fill="#2C322E"/>
<path d="M216.931 0C217.785 2.9651 218.251 6.15551 218.251 9.47949C218.251 25.1864 207.874 37.9199 195.073 37.9199C182.273 37.9196 171.896 25.1863 171.896 9.47949C171.897 6.15551 172.363 2.96511 173.217 0H216.931Z" fill="#2C322E"/>
<path d="M317 0C320.484 4.04814e-05 323.769 0.849228 326.661 2.35059C328.395 8.55708 328.648 15.0859 327.022 20.7666C323.405 33.4117 311.857 37.065 301.229 28.9268C292.911 22.5565 287.624 10.8501 287.453 0H317Z" fill="#2C322E"/>
<path d="M71.0146 108.929C95.3005 106.362 115.913 127.707 117.054 156.605C117.072 157.07 117.085 157.534 117.093 157.997H29.29C31.4795 132.488 48.9712 111.259 71.0146 108.929Z" fill="#2C322E"/>
</svg>
