<svg width="40" height="28" viewBox="0 0 40 28" fill="none" xmlns="http://www.w3.org/2000/svg">
<path d="M4 2C4 3.10457 3.10457 4 2 4C0.89543 4 0 3.10457 0 2C0 0.89543 0.89543 0 2 0C3.10457 0 4 0.89543 4 2Z" fill="url(#paint0_linear_284_4269)"/>
<path d="M4 8C4 9.10457 3.10457 10 2 10C0.89543 10 0 9.10457 0 8C0 6.89543 0.89543 6 2 6C3.10457 6 4 6.89543 4 8Z" fill="url(#paint1_linear_284_4269)"/>
<path d="M4 14C4 15.1046 3.10457 16 2 16C0.89543 16 0 15.1046 0 14C0 12.8954 0.89543 12 2 12C3.10457 12 4 12.8954 4 14Z" fill="url(#paint2_linear_284_4269)"/>
<path d="M4 20C4 21.1046 3.10457 22 2 22C0.89543 22 0 21.1046 0 20C0 18.8954 0.89543 18 2 18C3.10457 18 4 18.8954 4 20Z" fill="url(#paint3_linear_284_4269)"/>
<path d="M4 26C4 27.1046 3.10457 28 2 28C0.89543 28 0 27.1046 0 26C0 24.8954 0.89543 24 2 24C3.10457 24 4 24.8954 4 26Z" fill="url(#paint4_linear_284_4269)"/>
<path d="M10 2C10 3.10457 9.10457 4 8 4C6.89543 4 6 3.10457 6 2C6 0.89543 6.89543 0 8 0C9.10457 0 10 0.89543 10 2Z" fill="url(#paint5_linear_284_4269)"/>
<path d="M10 8C10 9.10457 9.10457 10 8 10C6.89543 10 6 9.10457 6 8C6 6.89543 6.89543 6 8 6C9.10457 6 10 6.89543 10 8Z" fill="url(#paint6_linear_284_4269)"/>
<path d="M10 14C10 15.1046 9.10457 16 8 16C6.89543 16 6 15.1046 6 14C6 12.8954 6.89543 12 8 12C9.10457 12 10 12.8954 10 14Z" fill="url(#paint7_linear_284_4269)"/>
<path d="M10 20C10 21.1046 9.10457 22 8 22C6.89543 22 6 21.1046 6 20C6 18.8954 6.89543 18 8 18C9.10457 18 10 18.8954 10 20Z" fill="url(#paint8_linear_284_4269)"/>
<path d="M10 26C10 27.1046 9.10457 28 8 28C6.89543 28 6 27.1046 6 26C6 24.8954 6.89543 24 8 24C9.10457 24 10 24.8954 10 26Z" fill="url(#paint9_linear_284_4269)"/>
<path d="M16 2C16 3.10457 15.1046 4 14 4C12.8954 4 12 3.10457 12 2C12 0.89543 12.8954 0 14 0C15.1046 0 16 0.89543 16 2Z" fill="url(#paint10_linear_284_4269)"/>
<path d="M16 8C16 9.10457 15.1046 10 14 10C12.8954 10 12 9.10457 12 8C12 6.89543 12.8954 6 14 6C15.1046 6 16 6.89543 16 8Z" fill="url(#paint11_linear_284_4269)"/>
<path d="M16 14C16 15.1046 15.1046 16 14 16C12.8954 16 12 15.1046 12 14C12 12.8954 12.8954 12 14 12C15.1046 12 16 12.8954 16 14Z" fill="url(#paint12_linear_284_4269)"/>
<path d="M16 20C16 21.1046 15.1046 22 14 22C12.8954 22 12 21.1046 12 20C12 18.8954 12.8954 18 14 18C15.1046 18 16 18.8954 16 20Z" fill="url(#paint13_linear_284_4269)"/>
<path d="M16 26C16 27.1046 15.1046 28 14 28C12.8954 28 12 27.1046 12 26C12 24.8954 12.8954 24 14 24C15.1046 24 16 24.8954 16 26Z" fill="url(#paint14_linear_284_4269)"/>
<path d="M22 2C22 3.10457 21.1046 4 20 4C18.8954 4 18 3.10457 18 2C18 0.89543 18.8954 0 20 0C21.1046 0 22 0.89543 22 2Z" fill="url(#paint15_linear_284_4269)"/>
<path d="M22 8C22 9.10457 21.1046 10 20 10C18.8954 10 18 9.10457 18 8C18 6.89543 18.8954 6 20 6C21.1046 6 22 6.89543 22 8Z" fill="url(#paint16_linear_284_4269)"/>
<path d="M22 14C22 15.1046 21.1046 16 20 16C18.8954 16 18 15.1046 18 14C18 12.8954 18.8954 12 20 12C21.1046 12 22 12.8954 22 14Z" fill="url(#paint17_linear_284_4269)"/>
<path d="M22 20C22 21.1046 21.1046 22 20 22C18.8954 22 18 21.1046 18 20C18 18.8954 18.8954 18 20 18C21.1046 18 22 18.8954 22 20Z" fill="url(#paint18_linear_284_4269)"/>
<path d="M22 26C22 27.1046 21.1046 28 20 28C18.8954 28 18 27.1046 18 26C18 24.8954 18.8954 24 20 24C21.1046 24 22 24.8954 22 26Z" fill="url(#paint19_linear_284_4269)"/>
<path d="M28 2C28 3.10457 27.1046 4 26 4C24.8954 4 24 3.10457 24 2C24 0.89543 24.8954 0 26 0C27.1046 0 28 0.89543 28 2Z" fill="url(#paint20_linear_284_4269)"/>
<path d="M28 8C28 9.10457 27.1046 10 26 10C24.8954 10 24 9.10457 24 8C24 6.89543 24.8954 6 26 6C27.1046 6 28 6.89543 28 8Z" fill="url(#paint21_linear_284_4269)"/>
<path d="M28 14C28 15.1046 27.1046 16 26 16C24.8954 16 24 15.1046 24 14C24 12.8954 24.8954 12 26 12C27.1046 12 28 12.8954 28 14Z" fill="url(#paint22_linear_284_4269)"/>
<path d="M28 20C28 21.1046 27.1046 22 26 22C24.8954 22 24 21.1046 24 20C24 18.8954 24.8954 18 26 18C27.1046 18 28 18.8954 28 20Z" fill="url(#paint23_linear_284_4269)"/>
<path d="M28 26C28 27.1046 27.1046 28 26 28C24.8954 28 24 27.1046 24 26C24 24.8954 24.8954 24 26 24C27.1046 24 28 24.8954 28 26Z" fill="url(#paint24_linear_284_4269)"/>
<path d="M34 2C34 3.10457 33.1046 4 32 4C30.8954 4 30 3.10457 30 2C30 0.89543 30.8954 0 32 0C33.1046 0 34 0.89543 34 2Z" fill="url(#paint25_linear_284_4269)"/>
<path d="M34 8C34 9.10457 33.1046 10 32 10C30.8954 10 30 9.10457 30 8C30 6.89543 30.8954 6 32 6C33.1046 6 34 6.89543 34 8Z" fill="url(#paint26_linear_284_4269)"/>
<path d="M34 14C34 15.1046 33.1046 16 32 16C30.8954 16 30 15.1046 30 14C30 12.8954 30.8954 12 32 12C33.1046 12 34 12.8954 34 14Z" fill="url(#paint27_linear_284_4269)"/>
<path d="M34 20C34 21.1046 33.1046 22 32 22C30.8954 22 30 21.1046 30 20C30 18.8954 30.8954 18 32 18C33.1046 18 34 18.8954 34 20Z" fill="url(#paint28_linear_284_4269)"/>
<path d="M34 26C34 27.1046 33.1046 28 32 28C30.8954 28 30 27.1046 30 26C30 24.8954 30.8954 24 32 24C33.1046 24 34 24.8954 34 26Z" fill="url(#paint29_linear_284_4269)"/>
<path d="M40 2C40 3.10457 39.1046 4 38 4C36.8954 4 36 3.10457 36 2C36 0.89543 36.8954 0 38 0C39.1046 0 40 0.89543 40 2Z" fill="url(#paint30_linear_284_4269)"/>
<path d="M40 8C40 9.10457 39.1046 10 38 10C36.8954 10 36 9.10457 36 8C36 6.89543 36.8954 6 38 6C39.1046 6 40 6.89543 40 8Z" fill="url(#paint31_linear_284_4269)"/>
<path d="M40 14C40 15.1046 39.1046 16 38 16C36.8954 16 36 15.1046 36 14C36 12.8954 36.8954 12 38 12C39.1046 12 40 12.8954 40 14Z" fill="url(#paint32_linear_284_4269)"/>
<path d="M40 20C40 21.1046 39.1046 22 38 22C36.8954 22 36 21.1046 36 20C36 18.8954 36.8954 18 38 18C39.1046 18 40 18.8954 40 20Z" fill="url(#paint33_linear_284_4269)"/>
<path d="M40 26C40 27.1046 39.1046 28 38 28C36.8954 28 36 27.1046 36 26C36 24.8954 36.8954 24 38 24C39.1046 24 40 24.8954 40 26Z" fill="url(#paint34_linear_284_4269)"/>
<defs>
<linearGradient id="paint0_linear_284_4269" x1="20" y1="0" x2="20" y2="28" gradientUnits="userSpaceOnUse">
<stop stop-opacity="0"/>
<stop offset="1"/>
</linearGradient>
<linearGradient id="paint1_linear_284_4269" x1="20" y1="0" x2="20" y2="28" gradientUnits="userSpaceOnUse">
<stop stop-opacity="0"/>
<stop offset="1"/>
</linearGradient>
<linearGradient id="paint2_linear_284_4269" x1="20" y1="0" x2="20" y2="28" gradientUnits="userSpaceOnUse">
<stop stop-opacity="0"/>
<stop offset="1"/>
</linearGradient>
<linearGradient id="paint3_linear_284_4269" x1="20" y1="0" x2="20" y2="28" gradientUnits="userSpaceOnUse">
<stop stop-opacity="0"/>
<stop offset="1"/>
</linearGradient>
<linearGradient id="paint4_linear_284_4269" x1="20" y1="0" x2="20" y2="28" gradientUnits="userSpaceOnUse">
<stop stop-opacity="0"/>
<stop offset="1"/>
</linearGradient>
<linearGradient id="paint5_linear_284_4269" x1="20" y1="0" x2="20" y2="28" gradientUnits="userSpaceOnUse">
<stop stop-opacity="0"/>
<stop offset="1"/>
</linearGradient>
<linearGradient id="paint6_linear_284_4269" x1="20" y1="0" x2="20" y2="28" gradientUnits="userSpaceOnUse">
<stop stop-opacity="0"/>
<stop offset="1"/>
</linearGradient>
<linearGradient id="paint7_linear_284_4269" x1="20" y1="0" x2="20" y2="28" gradientUnits="userSpaceOnUse">
<stop stop-opacity="0"/>
<stop offset="1"/>
</linearGradient>
<linearGradient id="paint8_linear_284_4269" x1="20" y1="0" x2="20" y2="28" gradientUnits="userSpaceOnUse">
<stop stop-opacity="0"/>
<stop offset="1"/>
</linearGradient>
<linearGradient id="paint9_linear_284_4269" x1="20" y1="0" x2="20" y2="28" gradientUnits="userSpaceOnUse">
<stop stop-opacity="0"/>
<stop offset="1"/>
</linearGradient>
<linearGradient id="paint10_linear_284_4269" x1="20" y1="0" x2="20" y2="28" gradientUnits="userSpaceOnUse">
<stop stop-opacity="0"/>
<stop offset="1"/>
</linearGradient>
<linearGradient id="paint11_linear_284_4269" x1="20" y1="0" x2="20" y2="28" gradientUnits="userSpaceOnUse">
<stop stop-opacity="0"/>
<stop offset="1"/>
</linearGradient>
<linearGradient id="paint12_linear_284_4269" x1="20" y1="0" x2="20" y2="28" gradientUnits="userSpaceOnUse">
<stop stop-opacity="0"/>
<stop offset="1"/>
</linearGradient>
<linearGradient id="paint13_linear_284_4269" x1="20" y1="0" x2="20" y2="28" gradientUnits="userSpaceOnUse">
<stop stop-opacity="0"/>
<stop offset="1"/>
</linearGradient>
<linearGradient id="paint14_linear_284_4269" x1="20" y1="0" x2="20" y2="28" gradientUnits="userSpaceOnUse">
<stop stop-opacity="0"/>
<stop offset="1"/>
</linearGradient>
<linearGradient id="paint15_linear_284_4269" x1="20" y1="0" x2="20" y2="28" gradientUnits="userSpaceOnUse">
<stop stop-opacity="0"/>
<stop offset="1"/>
</linearGradient>
<linearGradient id="paint16_linear_284_4269" x1="20" y1="0" x2="20" y2="28" gradientUnits="userSpaceOnUse">
<stop stop-opacity="0"/>
<stop offset="1"/>
</linearGradient>
<linearGradient id="paint17_linear_284_4269" x1="20" y1="0" x2="20" y2="28" gradientUnits="userSpaceOnUse">
<stop stop-opacity="0"/>
<stop offset="1"/>
</linearGradient>
<linearGradient id="paint18_linear_284_4269" x1="20" y1="0" x2="20" y2="28" gradientUnits="userSpaceOnUse">
<stop stop-opacity="0"/>
<stop offset="1"/>
</linearGradient>
<linearGradient id="paint19_linear_284_4269" x1="20" y1="0" x2="20" y2="28" gradientUnits="userSpaceOnUse">
<stop stop-opacity="0"/>
<stop offset="1"/>
</linearGradient>
<linearGradient id="paint20_linear_284_4269" x1="20" y1="0" x2="20" y2="28" gradientUnits="userSpaceOnUse">
<stop stop-opacity="0"/>
<stop offset="1"/>
</linearGradient>
<linearGradient id="paint21_linear_284_4269" x1="20" y1="0" x2="20" y2="28" gradientUnits="userSpaceOnUse">
<stop stop-opacity="0"/>
<stop offset="1"/>
</linearGradient>
<linearGradient id="paint22_linear_284_4269" x1="20" y1="0" x2="20" y2="28" gradientUnits="userSpaceOnUse">
<stop stop-opacity="0"/>
<stop offset="1"/>
</linearGradient>
<linearGradient id="paint23_linear_284_4269" x1="20" y1="0" x2="20" y2="28" gradientUnits="userSpaceOnUse">
<stop stop-opacity="0"/>
<stop offset="1"/>
</linearGradient>
<linearGradient id="paint24_linear_284_4269" x1="20" y1="0" x2="20" y2="28" gradientUnits="userSpaceOnUse">
<stop stop-opacity="0"/>
<stop offset="1"/>
</linearGradient>
<linearGradient id="paint25_linear_284_4269" x1="20" y1="0" x2="20" y2="28" gradientUnits="userSpaceOnUse">
<stop stop-opacity="0"/>
<stop offset="1"/>
</linearGradient>
<linearGradient id="paint26_linear_284_4269" x1="20" y1="0" x2="20" y2="28" gradientUnits="userSpaceOnUse">
<stop stop-opacity="0"/>
<stop offset="1"/>
</linearGradient>
<linearGradient id="paint27_linear_284_4269" x1="20" y1="0" x2="20" y2="28" gradientUnits="userSpaceOnUse">
<stop stop-opacity="0"/>
<stop offset="1"/>
</linearGradient>
<linearGradient id="paint28_linear_284_4269" x1="20" y1="0" x2="20" y2="28" gradientUnits="userSpaceOnUse">
<stop stop-opacity="0"/>
<stop offset="1"/>
</linearGradient>
<linearGradient id="paint29_linear_284_4269" x1="20" y1="0" x2="20" y2="28" gradientUnits="userSpaceOnUse">
<stop stop-opacity="0"/>
<stop offset="1"/>
</linearGradient>
<linearGradient id="paint30_linear_284_4269" x1="20" y1="0" x2="20" y2="28" gradientUnits="userSpaceOnUse">
<stop stop-opacity="0"/>
<stop offset="1"/>
</linearGradient>
<linearGradient id="paint31_linear_284_4269" x1="20" y1="0" x2="20" y2="28" gradientUnits="userSpaceOnUse">
<stop stop-opacity="0"/>
<stop offset="1"/>
</linearGradient>
<linearGradient id="paint32_linear_284_4269" x1="20" y1="0" x2="20" y2="28" gradientUnits="userSpaceOnUse">
<stop stop-opacity="0"/>
<stop offset="1"/>
</linearGradient>
<linearGradient id="paint33_linear_284_4269" x1="20" y1="0" x2="20" y2="28" gradientUnits="userSpaceOnUse">
<stop stop-opacity="0"/>
<stop offset="1"/>
</linearGradient>
<linearGradient id="paint34_linear_284_4269" x1="20" y1="0" x2="20" y2="28" gradientUnits="userSpaceOnUse">
<stop stop-opacity="0"/>
<stop offset="1"/>
</linearGradient>
</defs>
</svg>
