<svg width="40" height="40" viewBox="0 0 40 40" fill="none" xmlns="http://www.w3.org/2000/svg">
<path d="M32 36C33.1046 36 34 36.8954 34 38C34 39.1046 33.1046 40 32 40C30.8954 40 30 39.1046 30 38C30 36.8954 30.8954 36 32 36Z" fill="url(#paint0_linear_284_4268)"/>
<path d="M32 30C33.1046 30 34 30.8954 34 32C34 33.1046 33.1046 34 32 34C30.8954 34 30 33.1046 30 32C30 30.8954 30.8954 30 32 30Z" fill="url(#paint1_linear_284_4268)"/>
<path d="M32 24C33.1046 24 34 24.8954 34 26C34 27.1046 33.1046 28 32 28C30.8954 28 30 27.1046 30 26C30 24.8954 30.8954 24 32 24Z" fill="url(#paint2_linear_284_4268)"/>
<path d="M32 18C33.1046 18 34 18.8954 34 20C34 21.1046 33.1046 22 32 22C30.8954 22 30 21.1046 30 20C30 18.8954 30.8954 18 32 18Z" fill="url(#paint3_linear_284_4268)"/>
<path d="M32 12C33.1046 12 34 12.8954 34 14C34 15.1046 33.1046 16 32 16C30.8954 16 30 15.1046 30 14C30 12.8954 30.8954 12 32 12Z" fill="url(#paint4_linear_284_4268)"/>
<path d="M32 6C33.1046 6 34 6.89543 34 8C34 9.10457 33.1046 10 32 10C30.8954 10 30 9.10457 30 8C30 6.89543 30.8954 6 32 6Z" fill="url(#paint5_linear_284_4268)"/>
<path d="M32 -8.74228e-08C33.1046 -1.35705e-07 34 0.89543 34 2C34 3.10457 33.1046 4 32 4C30.8954 4 30 3.10457 30 2C30 0.89543 30.8954 -3.91405e-08 32 -8.74228e-08Z" fill="url(#paint6_linear_284_4268)"/>
<path d="M38 36C39.1046 36 40 36.8954 40 38C40 39.1046 39.1046 40 38 40C36.8954 40 36 39.1046 36 38C36 36.8954 36.8954 36 38 36Z" fill="url(#paint7_linear_284_4268)"/>
<path d="M38 30C39.1046 30 40 30.8954 40 32C40 33.1046 39.1046 34 38 34C36.8954 34 36 33.1046 36 32C36 30.8954 36.8954 30 38 30Z" fill="url(#paint8_linear_284_4268)"/>
<path d="M38 24C39.1046 24 40 24.8954 40 26C40 27.1046 39.1046 28 38 28C36.8954 28 36 27.1046 36 26C36 24.8954 36.8954 24 38 24Z" fill="url(#paint9_linear_284_4268)"/>
<path d="M38 18C39.1046 18 40 18.8954 40 20C40 21.1046 39.1046 22 38 22C36.8954 22 36 21.1046 36 20C36 18.8954 36.8954 18 38 18Z" fill="url(#paint10_linear_284_4268)"/>
<path d="M38 12C39.1046 12 40 12.8954 40 14C40 15.1046 39.1046 16 38 16C36.8954 16 36 15.1046 36 14C36 12.8954 36.8954 12 38 12Z" fill="url(#paint11_linear_284_4268)"/>
<path d="M38 6C39.1046 6 40 6.89543 40 8C40 9.10457 39.1046 10 38 10C36.8954 10 36 9.10457 36 8C36 6.89543 36.8954 6 38 6Z" fill="url(#paint12_linear_284_4268)"/>
<path d="M38 -8.74228e-08C39.1046 -1.35705e-07 40 0.89543 40 2C40 3.10457 39.1046 4 38 4C36.8954 4 36 3.10457 36 2C36 0.89543 36.8954 -3.91405e-08 38 -8.74228e-08Z" fill="url(#paint13_linear_284_4268)"/>
<path d="M2 36C3.10457 36 4 36.8954 4 38C4 39.1046 3.10457 40 2 40C0.89543 40 -3.91405e-08 39.1046 -8.74228e-08 38C-1.35705e-07 36.8954 0.89543 36 2 36Z" fill="url(#paint14_linear_284_4268)"/>
<path d="M8 36C9.10457 36 10 36.8954 10 38C10 39.1046 9.10457 40 8 40C6.89543 40 6 39.1046 6 38C6 36.8954 6.89543 36 8 36Z" fill="url(#paint15_linear_284_4268)"/>
<path d="M14 36C15.1046 36 16 36.8954 16 38C16 39.1046 15.1046 40 14 40C12.8954 40 12 39.1046 12 38C12 36.8954 12.8954 36 14 36Z" fill="url(#paint16_linear_284_4268)"/>
<path d="M20 36C21.1046 36 22 36.8954 22 38C22 39.1046 21.1046 40 20 40C18.8954 40 18 39.1046 18 38C18 36.8954 18.8954 36 20 36Z" fill="url(#paint17_linear_284_4268)"/>
<path d="M26 36C27.1046 36 28 36.8954 28 38C28 39.1046 27.1046 40 26 40C24.8954 40 24 39.1046 24 38C24 36.8954 24.8954 36 26 36Z" fill="url(#paint18_linear_284_4268)"/>
<path d="M2 30C3.10457 30 4 30.8954 4 32C4 33.1046 3.10457 34 2 34C0.89543 34 -3.01409e-07 33.1046 -3.49691e-07 32C-3.97973e-07 30.8954 0.89543 30 2 30Z" fill="url(#paint19_linear_284_4268)"/>
<path d="M8 30C9.10457 30 10 30.8954 10 32C10 33.1046 9.10457 34 8 34C6.89543 34 6 33.1046 6 32C6 30.8954 6.89543 30 8 30Z" fill="url(#paint20_linear_284_4268)"/>
<path d="M14 30C15.1046 30 16 30.8954 16 32C16 33.1046 15.1046 34 14 34C12.8954 34 12 33.1046 12 32C12 30.8954 12.8954 30 14 30Z" fill="url(#paint21_linear_284_4268)"/>
<path d="M20 30C21.1046 30 22 30.8954 22 32C22 33.1046 21.1046 34 20 34C18.8954 34 18 33.1046 18 32C18 30.8954 18.8954 30 20 30Z" fill="url(#paint22_linear_284_4268)"/>
<path d="M26 30C27.1046 30 28 30.8954 28 32C28 33.1046 27.1046 34 26 34C24.8954 34 24 33.1046 24 32C24 30.8954 24.8954 30 26 30Z" fill="url(#paint23_linear_284_4268)"/>
<path d="M2 24C3.10457 24 4 24.8954 4 26C4 27.1046 3.10457 28 2 28C0.89543 28 -5.63677e-07 27.1046 -6.11959e-07 26C-6.60242e-07 24.8954 0.89543 24 2 24Z" fill="url(#paint24_linear_284_4268)"/>
<path d="M8 24C9.10457 24 10 24.8954 10 26C10 27.1046 9.10457 28 8 28C6.89543 28 6 27.1046 6 26C6 24.8954 6.89543 24 8 24Z" fill="url(#paint25_linear_284_4268)"/>
<path d="M14 24C15.1046 24 16 24.8954 16 26C16 27.1046 15.1046 28 14 28C12.8954 28 12 27.1046 12 26C12 24.8954 12.8954 24 14 24Z" fill="url(#paint26_linear_284_4268)"/>
<path d="M20 24C21.1046 24 22 24.8954 22 26C22 27.1046 21.1046 28 20 28C18.8954 28 18 27.1046 18 26C18 24.8954 18.8954 24 20 24Z" fill="url(#paint27_linear_284_4268)"/>
<path d="M26 24C27.1046 24 28 24.8954 28 26C28 27.1046 27.1046 28 26 28C24.8954 28 24 27.1046 24 26C24 24.8954 24.8954 24 26 24Z" fill="url(#paint28_linear_284_4268)"/>
<path d="M2 18C3.10457 18 4 18.8954 4 20C4 21.1046 3.10457 22 2 22C0.89543 22 -8.25945e-07 21.1046 -8.74228e-07 20C-9.2251e-07 18.8954 0.895429 18 2 18Z" fill="url(#paint29_linear_284_4268)"/>
<path d="M8 18C9.10457 18 10 18.8954 10 20C10 21.1046 9.10457 22 8 22C6.89543 22 6 21.1046 6 20C6 18.8954 6.89543 18 8 18Z" fill="url(#paint30_linear_284_4268)"/>
<path d="M14 18C15.1046 18 16 18.8954 16 20C16 21.1046 15.1046 22 14 22C12.8954 22 12 21.1046 12 20C12 18.8954 12.8954 18 14 18Z" fill="url(#paint31_linear_284_4268)"/>
<path d="M20 18C21.1046 18 22 18.8954 22 20C22 21.1046 21.1046 22 20 22C18.8954 22 18 21.1046 18 20C18 18.8954 18.8954 18 20 18Z" fill="url(#paint32_linear_284_4268)"/>
<path d="M26 18C27.1046 18 28 18.8954 28 20C28 21.1046 27.1046 22 26 22C24.8954 22 24 21.1046 24 20C24 18.8954 24.8954 18 26 18Z" fill="url(#paint33_linear_284_4268)"/>
<path d="M2 12C3.10457 12 4 12.8954 4 14C4 15.1046 3.10457 16 2 16C0.895429 16 -1.08821e-06 15.1046 -1.1365e-06 14C-1.18478e-06 12.8954 0.895429 12 2 12Z" fill="url(#paint34_linear_284_4268)"/>
<path d="M8 12C9.10457 12 10 12.8954 10 14C10 15.1046 9.10457 16 8 16C6.89543 16 6 15.1046 6 14C6 12.8954 6.89543 12 8 12Z" fill="url(#paint35_linear_284_4268)"/>
<path d="M14 12C15.1046 12 16 12.8954 16 14C16 15.1046 15.1046 16 14 16C12.8954 16 12 15.1046 12 14C12 12.8954 12.8954 12 14 12Z" fill="url(#paint36_linear_284_4268)"/>
<path d="M20 12C21.1046 12 22 12.8954 22 14C22 15.1046 21.1046 16 20 16C18.8954 16 18 15.1046 18 14C18 12.8954 18.8954 12 20 12Z" fill="url(#paint37_linear_284_4268)"/>
<path d="M26 12C27.1046 12 28 12.8954 28 14C28 15.1046 27.1046 16 26 16C24.8954 16 24 15.1046 24 14C24 12.8954 24.8954 12 26 12Z" fill="url(#paint38_linear_284_4268)"/>
<path d="M2 6C3.10457 6 4 6.89543 4 8C4 9.10457 3.10457 10 2 10C0.895429 10 -1.35048e-06 9.10457 -1.39876e-06 8C-1.44705e-06 6.89543 0.895429 6 2 6Z" fill="url(#paint39_linear_284_4268)"/>
<path d="M8 6C9.10457 6 10 6.89543 10 8C10 9.10457 9.10457 10 8 10C6.89543 10 6 9.10457 6 8C6 6.89543 6.89543 6 8 6Z" fill="url(#paint40_linear_284_4268)"/>
<path d="M14 6C15.1046 6 16 6.89543 16 8C16 9.10457 15.1046 10 14 10C12.8954 10 12 9.10457 12 8C12 6.89543 12.8954 6 14 6Z" fill="url(#paint41_linear_284_4268)"/>
<path d="M20 6C21.1046 6 22 6.89543 22 8C22 9.10457 21.1046 10 20 10C18.8954 10 18 9.10457 18 8C18 6.89543 18.8954 6 20 6Z" fill="url(#paint42_linear_284_4268)"/>
<path d="M26 6C27.1046 6 28 6.89543 28 8C28 9.10457 27.1046 10 26 10C24.8954 10 24 9.10457 24 8C24 6.89543 24.8954 6 26 6Z" fill="url(#paint43_linear_284_4268)"/>
<path d="M2 -8.74228e-08C3.10457 -1.35705e-07 4 0.89543 4 2C4 3.10457 3.10457 4 2 4C0.895429 4 -1.61275e-06 3.10457 -1.66103e-06 2C-1.70932e-06 0.89543 0.895429 -3.91405e-08 2 -8.74228e-08Z" fill="url(#paint44_linear_284_4268)"/>
<path d="M8 -3.49691e-07C9.10457 -3.97973e-07 10 0.89543 10 2C10 3.10457 9.10457 4 8 4C6.89543 4 6 3.10457 6 2C6 0.89543 6.89543 -3.01409e-07 8 -3.49691e-07Z" fill="url(#paint45_linear_284_4268)"/>
<path d="M14 -6.11959e-07C15.1046 -6.60242e-07 16 0.89543 16 2C16 3.10457 15.1046 4 14 4C12.8954 4 12 3.10457 12 2C12 0.89543 12.8954 -5.63677e-07 14 -6.11959e-07Z" fill="url(#paint46_linear_284_4268)"/>
<path d="M20 -8.74228e-07C21.1046 -9.2251e-07 22 0.895429 22 2C22 3.10457 21.1046 4 20 4C18.8954 4 18 3.10457 18 2C18 0.89543 18.8954 -8.25945e-07 20 -8.74228e-07Z" fill="url(#paint47_linear_284_4268)"/>
<path d="M26 -1.1365e-06C27.1046 -1.18478e-06 28 0.895429 28 2C28 3.10457 27.1046 4 26 4C24.8954 4 24 3.10457 24 2C24 0.895429 24.8954 -1.08821e-06 26 -1.1365e-06Z" fill="url(#paint48_linear_284_4268)"/>
<defs>
<linearGradient id="paint0_linear_284_4268" x1="6" y1="20" x2="34" y2="20" gradientUnits="userSpaceOnUse">
<stop stop-opacity="0"/>
<stop offset="1"/>
</linearGradient>
<linearGradient id="paint1_linear_284_4268" x1="6" y1="20" x2="34" y2="20" gradientUnits="userSpaceOnUse">
<stop stop-opacity="0"/>
<stop offset="1"/>
</linearGradient>
<linearGradient id="paint2_linear_284_4268" x1="6" y1="20" x2="34" y2="20" gradientUnits="userSpaceOnUse">
<stop stop-opacity="0"/>
<stop offset="1"/>
</linearGradient>
<linearGradient id="paint3_linear_284_4268" x1="6" y1="20" x2="34" y2="20" gradientUnits="userSpaceOnUse">
<stop stop-opacity="0"/>
<stop offset="1"/>
</linearGradient>
<linearGradient id="paint4_linear_284_4268" x1="6" y1="20" x2="34" y2="20" gradientUnits="userSpaceOnUse">
<stop stop-opacity="0"/>
<stop offset="1"/>
</linearGradient>
<linearGradient id="paint5_linear_284_4268" x1="6" y1="20" x2="34" y2="20" gradientUnits="userSpaceOnUse">
<stop stop-opacity="0"/>
<stop offset="1"/>
</linearGradient>
<linearGradient id="paint6_linear_284_4268" x1="6" y1="20" x2="34" y2="20" gradientUnits="userSpaceOnUse">
<stop stop-opacity="0"/>
<stop offset="1"/>
</linearGradient>
<linearGradient id="paint7_linear_284_4268" x1="12" y1="20" x2="40" y2="20" gradientUnits="userSpaceOnUse">
<stop stop-opacity="0"/>
<stop offset="1"/>
</linearGradient>
<linearGradient id="paint8_linear_284_4268" x1="12" y1="20" x2="40" y2="20" gradientUnits="userSpaceOnUse">
<stop stop-opacity="0"/>
<stop offset="1"/>
</linearGradient>
<linearGradient id="paint9_linear_284_4268" x1="12" y1="20" x2="40" y2="20" gradientUnits="userSpaceOnUse">
<stop stop-opacity="0"/>
<stop offset="1"/>
</linearGradient>
<linearGradient id="paint10_linear_284_4268" x1="12" y1="20" x2="40" y2="20" gradientUnits="userSpaceOnUse">
<stop stop-opacity="0"/>
<stop offset="1"/>
</linearGradient>
<linearGradient id="paint11_linear_284_4268" x1="12" y1="20" x2="40" y2="20" gradientUnits="userSpaceOnUse">
<stop stop-opacity="0"/>
<stop offset="1"/>
</linearGradient>
<linearGradient id="paint12_linear_284_4268" x1="12" y1="20" x2="40" y2="20" gradientUnits="userSpaceOnUse">
<stop stop-opacity="0"/>
<stop offset="1"/>
</linearGradient>
<linearGradient id="paint13_linear_284_4268" x1="12" y1="20" x2="40" y2="20" gradientUnits="userSpaceOnUse">
<stop stop-opacity="0"/>
<stop offset="1"/>
</linearGradient>
<linearGradient id="paint14_linear_284_4268" x1="-8.74228e-07" y1="20" x2="28" y2="20" gradientUnits="userSpaceOnUse">
<stop stop-opacity="0"/>
<stop offset="1"/>
</linearGradient>
<linearGradient id="paint15_linear_284_4268" x1="-8.74228e-07" y1="20" x2="28" y2="20" gradientUnits="userSpaceOnUse">
<stop stop-opacity="0"/>
<stop offset="1"/>
</linearGradient>
<linearGradient id="paint16_linear_284_4268" x1="-8.74228e-07" y1="20" x2="28" y2="20" gradientUnits="userSpaceOnUse">
<stop stop-opacity="0"/>
<stop offset="1"/>
</linearGradient>
<linearGradient id="paint17_linear_284_4268" x1="-8.74228e-07" y1="20" x2="28" y2="20" gradientUnits="userSpaceOnUse">
<stop stop-opacity="0"/>
<stop offset="1"/>
</linearGradient>
<linearGradient id="paint18_linear_284_4268" x1="-8.74228e-07" y1="20" x2="28" y2="20" gradientUnits="userSpaceOnUse">
<stop stop-opacity="0"/>
<stop offset="1"/>
</linearGradient>
<linearGradient id="paint19_linear_284_4268" x1="-8.74228e-07" y1="20" x2="28" y2="20" gradientUnits="userSpaceOnUse">
<stop stop-opacity="0"/>
<stop offset="1"/>
</linearGradient>
<linearGradient id="paint20_linear_284_4268" x1="-8.74228e-07" y1="20" x2="28" y2="20" gradientUnits="userSpaceOnUse">
<stop stop-opacity="0"/>
<stop offset="1"/>
</linearGradient>
<linearGradient id="paint21_linear_284_4268" x1="-8.74228e-07" y1="20" x2="28" y2="20" gradientUnits="userSpaceOnUse">
<stop stop-opacity="0"/>
<stop offset="1"/>
</linearGradient>
<linearGradient id="paint22_linear_284_4268" x1="-8.74228e-07" y1="20" x2="28" y2="20" gradientUnits="userSpaceOnUse">
<stop stop-opacity="0"/>
<stop offset="1"/>
</linearGradient>
<linearGradient id="paint23_linear_284_4268" x1="-8.74228e-07" y1="20" x2="28" y2="20" gradientUnits="userSpaceOnUse">
<stop stop-opacity="0"/>
<stop offset="1"/>
</linearGradient>
<linearGradient id="paint24_linear_284_4268" x1="-8.74228e-07" y1="20" x2="28" y2="20" gradientUnits="userSpaceOnUse">
<stop stop-opacity="0"/>
<stop offset="1"/>
</linearGradient>
<linearGradient id="paint25_linear_284_4268" x1="-8.74228e-07" y1="20" x2="28" y2="20" gradientUnits="userSpaceOnUse">
<stop stop-opacity="0"/>
<stop offset="1"/>
</linearGradient>
<linearGradient id="paint26_linear_284_4268" x1="-8.74228e-07" y1="20" x2="28" y2="20" gradientUnits="userSpaceOnUse">
<stop stop-opacity="0"/>
<stop offset="1"/>
</linearGradient>
<linearGradient id="paint27_linear_284_4268" x1="-8.74228e-07" y1="20" x2="28" y2="20" gradientUnits="userSpaceOnUse">
<stop stop-opacity="0"/>
<stop offset="1"/>
</linearGradient>
<linearGradient id="paint28_linear_284_4268" x1="-8.74228e-07" y1="20" x2="28" y2="20" gradientUnits="userSpaceOnUse">
<stop stop-opacity="0"/>
<stop offset="1"/>
</linearGradient>
<linearGradient id="paint29_linear_284_4268" x1="-8.74228e-07" y1="20" x2="28" y2="20" gradientUnits="userSpaceOnUse">
<stop stop-opacity="0"/>
<stop offset="1"/>
</linearGradient>
<linearGradient id="paint30_linear_284_4268" x1="-8.74228e-07" y1="20" x2="28" y2="20" gradientUnits="userSpaceOnUse">
<stop stop-opacity="0"/>
<stop offset="1"/>
</linearGradient>
<linearGradient id="paint31_linear_284_4268" x1="-8.74228e-07" y1="20" x2="28" y2="20" gradientUnits="userSpaceOnUse">
<stop stop-opacity="0"/>
<stop offset="1"/>
</linearGradient>
<linearGradient id="paint32_linear_284_4268" x1="-8.74228e-07" y1="20" x2="28" y2="20" gradientUnits="userSpaceOnUse">
<stop stop-opacity="0"/>
<stop offset="1"/>
</linearGradient>
<linearGradient id="paint33_linear_284_4268" x1="-8.74228e-07" y1="20" x2="28" y2="20" gradientUnits="userSpaceOnUse">
<stop stop-opacity="0"/>
<stop offset="1"/>
</linearGradient>
<linearGradient id="paint34_linear_284_4268" x1="-8.74228e-07" y1="20" x2="28" y2="20" gradientUnits="userSpaceOnUse">
<stop stop-opacity="0"/>
<stop offset="1"/>
</linearGradient>
<linearGradient id="paint35_linear_284_4268" x1="-8.74228e-07" y1="20" x2="28" y2="20" gradientUnits="userSpaceOnUse">
<stop stop-opacity="0"/>
<stop offset="1"/>
</linearGradient>
<linearGradient id="paint36_linear_284_4268" x1="-8.74228e-07" y1="20" x2="28" y2="20" gradientUnits="userSpaceOnUse">
<stop stop-opacity="0"/>
<stop offset="1"/>
</linearGradient>
<linearGradient id="paint37_linear_284_4268" x1="-8.74228e-07" y1="20" x2="28" y2="20" gradientUnits="userSpaceOnUse">
<stop stop-opacity="0"/>
<stop offset="1"/>
</linearGradient>
<linearGradient id="paint38_linear_284_4268" x1="-8.74228e-07" y1="20" x2="28" y2="20" gradientUnits="userSpaceOnUse">
<stop stop-opacity="0"/>
<stop offset="1"/>
</linearGradient>
<linearGradient id="paint39_linear_284_4268" x1="-8.74228e-07" y1="20" x2="28" y2="20" gradientUnits="userSpaceOnUse">
<stop stop-opacity="0"/>
<stop offset="1"/>
</linearGradient>
<linearGradient id="paint40_linear_284_4268" x1="-8.74228e-07" y1="20" x2="28" y2="20" gradientUnits="userSpaceOnUse">
<stop stop-opacity="0"/>
<stop offset="1"/>
</linearGradient>
<linearGradient id="paint41_linear_284_4268" x1="-8.74228e-07" y1="20" x2="28" y2="20" gradientUnits="userSpaceOnUse">
<stop stop-opacity="0"/>
<stop offset="1"/>
</linearGradient>
<linearGradient id="paint42_linear_284_4268" x1="-8.74228e-07" y1="20" x2="28" y2="20" gradientUnits="userSpaceOnUse">
<stop stop-opacity="0"/>
<stop offset="1"/>
</linearGradient>
<linearGradient id="paint43_linear_284_4268" x1="-8.74228e-07" y1="20" x2="28" y2="20" gradientUnits="userSpaceOnUse">
<stop stop-opacity="0"/>
<stop offset="1"/>
</linearGradient>
<linearGradient id="paint44_linear_284_4268" x1="-8.74228e-07" y1="20" x2="28" y2="20" gradientUnits="userSpaceOnUse">
<stop stop-opacity="0"/>
<stop offset="1"/>
</linearGradient>
<linearGradient id="paint45_linear_284_4268" x1="-8.74228e-07" y1="20" x2="28" y2="20" gradientUnits="userSpaceOnUse">
<stop stop-opacity="0"/>
<stop offset="1"/>
</linearGradient>
<linearGradient id="paint46_linear_284_4268" x1="-8.74228e-07" y1="20" x2="28" y2="20" gradientUnits="userSpaceOnUse">
<stop stop-opacity="0"/>
<stop offset="1"/>
</linearGradient>
<linearGradient id="paint47_linear_284_4268" x1="-8.74228e-07" y1="20" x2="28" y2="20" gradientUnits="userSpaceOnUse">
<stop stop-opacity="0"/>
<stop offset="1"/>
</linearGradient>
<linearGradient id="paint48_linear_284_4268" x1="-8.74228e-07" y1="20" x2="28" y2="20" gradientUnits="userSpaceOnUse">
<stop stop-opacity="0"/>
<stop offset="1"/>
</linearGradient>
</defs>
</svg>
