<svg width="20" height="20" viewBox="0 0 20 20" fill="none" xmlns="http://www.w3.org/2000/svg">
<path opacity="0.4" d="M10.0004 18.3328C13.9906 18.3328 17.2254 15.0981 17.2254 11.1078C17.2254 7.11756 13.9906 3.88281 10.0004 3.88281C6.01013 3.88281 2.77539 7.11756 2.77539 11.1078C2.77539 15.0981 6.01013 18.3328 10.0004 18.3328Z" fill="white"/>
<path d="M10 11.4577C9.65833 11.4577 9.375 11.1743 9.375 10.8327V6.66602C9.375 6.32435 9.65833 6.04102 10 6.04102C10.3417 6.04102 10.625 6.32435 10.625 6.66602V10.8327C10.625 11.1743 10.3417 11.4577 10 11.4577Z" fill="white"/>
<path d="M12.4084 2.87435H7.5917C7.25837 2.87435 6.9917 2.60768 6.9917 2.27435C6.9917 1.94102 7.25837 1.66602 7.5917 1.66602H12.4084C12.7417 1.66602 13.0084 1.93268 13.0084 2.26602C13.0084 2.59935 12.7417 2.87435 12.4084 2.87435Z" fill="white"/>
</svg>
