<svg width="33" height="33" viewBox="0 0 33 33" fill="none" xmlns="http://www.w3.org/2000/svg">
<path opacity="0.4" d="M16.4999 30.2497C23.0838 30.2497 28.4211 24.9124 28.4211 18.3285C28.4211 11.7446 23.0838 6.40723 16.4999 6.40723C9.91594 6.40723 4.57861 11.7446 4.57861 18.3285C4.57861 24.9124 9.91594 30.2497 16.4999 30.2497Z" fill="black"/>
<path d="M16.5 18.9062C15.9363 18.9062 15.4688 18.4387 15.4688 17.875V11C15.4688 10.4363 15.9363 9.96875 16.5 9.96875C17.0637 9.96875 17.5312 10.4363 17.5312 11V17.875C17.5312 18.4387 17.0637 18.9062 16.5 18.9062Z" fill="black"/>
<path d="M20.4736 4.74375H12.5261C11.9761 4.74375 11.5361 4.30375 11.5361 3.75375C11.5361 3.20375 11.9761 2.75 12.5261 2.75H20.4736C21.0236 2.75 21.4636 3.19 21.4636 3.74C21.4636 4.29 21.0236 4.74375 20.4736 4.74375Z" fill="black"/>
</svg>
