<svg width="32" height="32" viewBox="0 0 32 32" fill="none" xmlns="http://www.w3.org/2000/svg">
<rect width="32" height="32" rx="8" fill="#2C322E"/>
<path d="M24.9955 13.4391C25.5503 13.4391 26 13.8671 26 14.3952V22.0439C26 22.5719 25.5503 23 24.9955 23C24.4408 23 23.9911 22.5719 23.9911 22.0439V21.5552H8.00893V22.0439C8.00893 22.5719 7.55921 23 7.00446 23C6.44971 23 6 22.5719 6 22.0439V14.3952C6 13.8672 6.44971 13.4391 7.00446 13.4391C7.55921 13.4391 8.00893 13.8671 8.00893 14.3952V14.5014H23.9911V14.3952C23.9911 13.8672 24.4408 13.4391 24.9955 13.4391Z" fill="white"/>
<path d="M22.5625 8C23.3515 8 23.9911 8.60879 23.9911 9.35977V13.3541C23.9911 13.5419 23.8312 13.6941 23.6339 13.6941H22.5179V13.0567C22.5179 12.6342 22.1581 12.2918 21.7143 12.2918H17.5179C17.0741 12.2918 16.7143 12.6342 16.7143 13.0567V13.6941H15.2857V13.0567C15.2857 12.6342 14.9259 12.2918 14.4821 12.2918H10.2857C9.84191 12.2918 9.48214 12.6342 9.48214 13.0567V13.6941H8.36607C8.16883 13.6941 8.00893 13.5419 8.00893 13.3541V9.35977C8.00893 8.60879 8.64852 8 9.4375 8H22.5625Z" fill="white"/>
</svg>
