<svg width="135" height="125" viewBox="0 0 135 125" fill="none" xmlns="http://www.w3.org/2000/svg">
<rect x="66.5626" width="1.875" height="4.43728" rx="0.9375" fill="#728377"/>
<g clip-path="url(#clip0_463_4358)">
<path d="M68.4374 120.756C68.4374 120.219 68.0177 119.783 67.4999 119.783C66.9822 119.783 66.5624 120.219 66.5624 120.756V123.247C66.5624 123.785 66.9822 124.22 67.4999 124.22C68.0177 124.22 68.4374 123.785 68.4374 123.247V120.756Z" fill="#728377"/>
</g>
<rect width="1.85048" height="4.50114" rx="0.925242" transform="matrix(0.877498 0.47958 -0.520702 0.853739 99.8439 7.09961)" fill="#728377"/>
<rect width="1.80045" height="4.62621" rx="0.900227" transform="matrix(0.520702 0.853739 -0.877498 0.47958 125.935 31.9492)" fill="#728377"/>
<rect width="1.80023" height="4.62675" rx="0.900117" transform="matrix(-0.518503 0.855076 -0.878664 -0.477441 126.15 94.1318)" fill="#728377"/>
<rect width="1.85027" height="4.50169" rx="0.925135" transform="matrix(-0.876327 0.481716 -0.522897 -0.852396 99.9654 118.892)" fill="#728377"/>
<rect width="1.85048" height="4.50114" rx="0.925242" transform="matrix(-0.877498 0.47958 0.520702 0.853739 35.4656 7.09961)" fill="#728377"/>
<rect width="1.80045" height="4.62621" rx="0.900227" transform="matrix(-0.520702 0.853739 0.877498 0.47958 7.50009 33.7236)" fill="#728377"/>
<rect width="1.80023" height="4.62675" rx="0.900117" transform="matrix(0.518503 0.855076 0.878664 -0.477441 7.50009 92.7295)" fill="#728377"/>
<rect width="1.85027" height="4.50169" rx="0.925135" transform="matrix(0.876327 0.481716 0.522897 -0.852396 33.75 118.319)" fill="#728377"/>
<rect y="63.8965" width="1.77491" height="4.6875" rx="0.887455" transform="rotate(-90 0 63.8965)" fill="#728377"/>
<rect x="130.312" y="63.8965" width="1.77491" height="4.6875" rx="0.887455" transform="rotate(-90 130.312 63.8965)" fill="#728377"/>
<defs>
<clipPath id="clip0_463_4358">
<rect width="2.26257" height="4.69738" fill="white" transform="translate(66.3687 119.783)"/>
</clipPath>
</defs>
</svg>
