<svg width="350" height="100" viewBox="0 0 350 100" fill="none" xmlns="http://www.w3.org/2000/svg">
<rect width="350" height="100" rx="27" fill="#323834"/>
<path d="M151.521 0C151.836 1.80656 152 3.64141 152 5.5C152 33.3904 115.511 56 70.5 56C40.4014 56 14.115 45.8889 0 30.8506V27C0 12.0883 12.0883 0 27 0H151.521Z" fill="#2C322E"/>
<path d="M281.5 32C310.23 32 335.487 41.2118 350 55.1279V73C350 87.9117 337.912 100 323 100H205.027C201.776 94.5475 200 88.6525 200 82.5C200 54.6096 236.489 32 281.5 32Z" fill="#2C322E"/>
<path d="M224.633 0C225.517 1.87684 226 3.89597 226 6C226 15.9411 215.255 24 202 24C188.745 24 178 15.9411 178 6C178 3.89597 178.483 1.87684 179.367 0H224.633Z" fill="#2C322E"/>
<path d="M323 0C329.244 0 334.993 2.12063 339.566 5.67969C339.997 8.25873 339.724 10.8137 338.634 13.1436C334.888 21.1467 322.93 23.4592 311.926 18.3086C303.312 14.2768 297.836 6.86739 297.659 0H323Z" fill="#2C322E"/>
<path d="M73.5352 68.942C98.6834 67.3174 120.027 80.8272 121.209 99.1168C121.228 99.4117 121.242 99.7059 121.25 99.9996H30.3281C32.5944 83.8537 50.7084 70.4167 73.5352 68.942Z" fill="#2C322E"/>
</svg>
