<svg width="25" height="25" viewBox="0 0 25 25" fill="none" xmlns="http://www.w3.org/2000/svg">
<path d="M0 12.5C0 5.59644 5.59644 0 12.5 0C19.4036 0 25 5.59644 25 12.5C25 19.4036 19.4036 25 12.5 25C5.59644 25 0 19.4036 0 12.5Z" fill="#2C322E"/>
<path d="M18.3471 11.6261C18.7077 11.6261 19 11.9114 19 12.2635V17.3626C19 17.7146 18.7077 18 18.3471 18C17.9865 18 17.6942 17.7146 17.6942 17.3626V17.0368H7.3058V17.3626C7.3058 17.7146 7.01349 18 6.6529 18C6.29231 18 6 17.7146 6 17.3626V12.2635C6 11.9114 6.29231 11.6261 6.6529 11.6261C7.01349 11.6261 7.3058 11.9114 7.3058 12.2635V12.3343H17.6942V12.2635C17.6942 11.9114 17.9865 11.6261 18.3471 11.6261Z" fill="white"/>
<path d="M16.7656 8C17.2785 8 17.6942 8.40586 17.6942 8.90652V11.5694C17.6942 11.6946 17.5903 11.796 17.4621 11.796H16.7366V11.3711C16.7366 11.0895 16.5028 10.8612 16.2143 10.8612H13.4866C13.1981 10.8612 12.9643 11.0895 12.9643 11.3711V11.796H12.0357V11.3711C12.0357 11.0895 11.8019 10.8612 11.5134 10.8612H8.78571C8.49724 10.8612 8.26339 11.0895 8.26339 11.3711V11.796H7.53795C7.40974 11.796 7.3058 11.6946 7.3058 11.5694V8.90652C7.3058 8.40586 7.72154 8 8.23437 8H16.7656Z" fill="white"/>
</svg>
