<svg width="25" height="25" viewBox="0 0 25 25" fill="none" xmlns="http://www.w3.org/2000/svg">
<rect width="25" height="25" rx="12.5" fill="#2C322E"/>
<path d="M12.5001 13.9648C13.0394 13.9648 13.4766 13.5276 13.4766 12.9883C13.4766 12.4489 13.0394 12.0117 12.5001 12.0117C11.9607 12.0117 11.5235 12.4489 11.5235 12.9883C11.5235 13.5276 11.9607 13.9648 12.5001 13.9648Z" fill="#556058"/>
<path d="M12.5 7.61719C11.4377 7.61719 10.3993 7.9322 9.51598 8.52238C8.63271 9.11256 7.94428 9.95141 7.53776 10.9329C7.13123 11.9143 7.02487 12.9942 7.23211 14.0361C7.43936 15.078 7.9509 16.0351 8.70207 16.7862C9.45323 17.5374 10.4103 18.0489 11.4522 18.2562C12.494 18.4634 13.574 18.3571 14.5554 17.9505C15.5369 17.544 16.3757 16.8556 16.9659 15.9723C17.5561 15.089 17.8711 14.0506 17.8711 12.9883C17.8711 11.5638 17.3052 10.1976 16.2979 9.19034C15.2907 8.18307 13.9245 7.61719 12.5 7.61719Z" fill="#556058"/>
<path d="M12.5001 11.7676V9.32617M12.5001 7.37305V6.88477M8.71588 8.71582L8.34967 8.34961M13.4766 12.9883C13.4766 13.5276 13.0394 13.9648 12.5001 13.9648C11.9607 13.9648 11.5235 13.5276 11.5235 12.9883C11.5235 12.4489 11.9607 12.0117 12.5001 12.0117C13.0394 12.0117 13.4766 12.4489 13.4766 12.9883ZM12.5 7.61719C11.4377 7.61719 10.3993 7.9322 9.51598 8.52238C8.63271 9.11256 7.94428 9.95141 7.53776 10.9329C7.13123 11.9143 7.02487 12.9942 7.23211 14.0361C7.43936 15.078 7.9509 16.0351 8.70207 16.7862C9.45323 17.5374 10.4103 18.0489 11.4522 18.2562C12.494 18.4634 13.574 18.3571 14.5554 17.9505C15.5369 17.544 16.3757 16.8556 16.9659 15.9723C17.5561 15.089 17.8711 14.0506 17.8711 12.9883C17.8711 11.5638 17.3052 10.1976 16.2979 9.19034C15.2907 8.18307 13.9245 7.61719 12.5 7.61719Z" stroke="white" stroke-miterlimit="10" stroke-linecap="round"/>
</svg>
